<?xml version="1.0" encoding="utf-8" standalone="no"?>
<!DOCTYPE svg PUBLIC "-//W3C//DTD SVG 1.1//EN"
  "http://www.w3.org/Graphics/SVG/1.1/DTD/svg11.dtd">
<svg xmlns:xlink="http://www.w3.org/1999/xlink" width="432pt" height="432pt" viewBox="0 0 432 432" xmlns="http://www.w3.org/2000/svg" version="1.1">
 <metadata>
  <rdf:RDF xmlns:dc="http://purl.org/dc/elements/1.1/" xmlns:cc="http://creativecommons.org/ns#" xmlns:rdf="http://www.w3.org/1999/02/22-rdf-syntax-ns#">
   <cc:Work>
    <dc:type rdf:resource="http://purl.org/dc/dcmitype/StillImage"/>
    <dc:date>2023-06-15T22:25:05.137817</dc:date>
    <dc:format>image/svg+xml</dc:format>
    <dc:creator>
     <cc:Agent>
      <dc:title>Matplotlib v3.5.1, https://matplotlib.org/</dc:title>
     </cc:Agent>
    </dc:creator>
   </cc:Work>
  </rdf:RDF>
 </metadata>
 <defs>
  <style type="text/css">*{stroke-linejoin: round; stroke-linecap: butt}</style>
 </defs>
 <g id="figure_1">
  <g id="patch_1">
   <path d="M 0 432 
L 432 432 
L 432 0 
L 0 0 
z
" style="fill: #ffffff"/>
  </g>
  <g id="axes_1">
   <g id="patch_2">
    <path d="M 221.4 70.2 
L 137.7 92.627347 
L 76.427347 153.9 
L 54 237.6 
L 76.427347 321.3 
L 137.7 382.572653 
L 221.4 405 
L 305.1 382.572653 
L 366.372653 321.3 
L 388.8 237.6 
L 366.372653 153.9 
L 305.1 92.627347 
z
" style="fill: #ffffff"/>
   </g>
   <g id="patch_3">
    <path d="M 221.4 153.9 
L 174.528 156.415314 
L 128.617504 184.032001 
L 117.611999 237.6 
L 143.114764 282.798002 
L 181.224001 307.186872 
L 221.4 327.996004 
L 269.945999 321.684136 
L 296.785777 281.123998 
L 311.796004 237.6 
L 282.288517 202.445999 
L 249.858 188.309298 
z
" clip-path="url(#pf336a89f6c)" style="fill: #f211d8; opacity: 0.4; stroke: #f211d8; stroke-linejoin: miter"/>
   </g>
   <g id="matplotlib.axis_1">
    <g id="xtick_1">
     <g id="line2d_1">
      <path d="M 221.4 237.6 
L 221.4 223.65 
L 221.4 209.7 
L 221.4 195.75 
L 221.4 181.8 
L 221.4 167.85 
L 221.4 153.9 
L 221.4 139.95 
L 221.4 126 
L 221.4 112.05 
L 221.4 98.1 
L 221.4 84.15 
L 221.4 70.2 
" clip-path="url(#pf336a89f6c)" style="fill: none; stroke: #b0b0b0; stroke-width: 0.8; stroke-linecap: square"/>
     </g>
     <g id="text_1">
      <!-- Volk -->
      <g transform="translate(211.023438 58.959375)scale(0.1 -0.1)">
       <defs>
        <path id="DejaVuSans-56" d="M 1831 0 
L 50 4666 
L 709 4666 
L 2188 738 
L 3669 4666 
L 4325 4666 
L 2547 0 
L 1831 0 
z
" transform="scale(0.015625)"/>
        <path id="DejaVuSans-6f" d="M 1959 3097 
Q 1497 3097 1228 2736 
Q 959 2375 959 1747 
Q 959 1119 1226 758 
Q 1494 397 1959 397 
Q 2419 397 2687 759 
Q 2956 1122 2956 1747 
Q 2956 2369 2687 2733 
Q 2419 3097 1959 3097 
z
M 1959 3584 
Q 2709 3584 3137 3096 
Q 3566 2609 3566 1747 
Q 3566 888 3137 398 
Q 2709 -91 1959 -91 
Q 1206 -91 779 398 
Q 353 888 353 1747 
Q 353 2609 779 3096 
Q 1206 3584 1959 3584 
z
" transform="scale(0.015625)"/>
        <path id="DejaVuSans-6c" d="M 603 4863 
L 1178 4863 
L 1178 0 
L 603 0 
L 603 4863 
z
" transform="scale(0.015625)"/>
        <path id="DejaVuSans-6b" d="M 581 4863 
L 1159 4863 
L 1159 1991 
L 2875 3500 
L 3609 3500 
L 1753 1863 
L 3688 0 
L 2938 0 
L 1159 1709 
L 1159 0 
L 581 0 
L 581 4863 
z
" transform="scale(0.015625)"/>
       </defs>
       <use xlink:href="#DejaVuSans-56"/>
       <use xlink:href="#DejaVuSans-6f" x="60.658203"/>
       <use xlink:href="#DejaVuSans-6c" x="121.839844"/>
       <use xlink:href="#DejaVuSans-6b" x="149.623047"/>
      </g>
     </g>
    </g>
    <g id="xtick_2">
     <g id="line2d_2">
      <path d="M 221.4 237.6 
L 214.425 225.518946 
L 207.45 213.437891 
L 200.475 201.356837 
L 193.5 189.275782 
L 186.525 177.194728 
L 179.55 165.113674 
L 172.575 153.032619 
L 165.6 140.951565 
L 158.625 128.870511 
L 151.65 116.789456 
L 144.675 104.708402 
L 137.7 92.627347 
" clip-path="url(#pf336a89f6c)" style="fill: none; stroke: #b0b0b0; stroke-width: 0.8; stroke-linecap: square"/>
     </g>
     <g id="text_2">
      <!-- PdA -->
      <g transform="translate(121.090625 83.262367)scale(0.1 -0.1)">
       <defs>
        <path id="DejaVuSans-50" d="M 1259 4147 
L 1259 2394 
L 2053 2394 
Q 2494 2394 2734 2622 
Q 2975 2850 2975 3272 
Q 2975 3691 2734 3919 
Q 2494 4147 2053 4147 
L 1259 4147 
z
M 628 4666 
L 2053 4666 
Q 2838 4666 3239 4311 
Q 3641 3956 3641 3272 
Q 3641 2581 3239 2228 
Q 2838 1875 2053 1875 
L 1259 1875 
L 1259 0 
L 628 0 
L 628 4666 
z
" transform="scale(0.015625)"/>
        <path id="DejaVuSans-64" d="M 2906 2969 
L 2906 4863 
L 3481 4863 
L 3481 0 
L 2906 0 
L 2906 525 
Q 2725 213 2448 61 
Q 2172 -91 1784 -91 
Q 1150 -91 751 415 
Q 353 922 353 1747 
Q 353 2572 751 3078 
Q 1150 3584 1784 3584 
Q 2172 3584 2448 3432 
Q 2725 3281 2906 2969 
z
M 947 1747 
Q 947 1113 1208 752 
Q 1469 391 1925 391 
Q 2381 391 2643 752 
Q 2906 1113 2906 1747 
Q 2906 2381 2643 2742 
Q 2381 3103 1925 3103 
Q 1469 3103 1208 2742 
Q 947 2381 947 1747 
z
" transform="scale(0.015625)"/>
        <path id="DejaVuSans-41" d="M 2188 4044 
L 1331 1722 
L 3047 1722 
L 2188 4044 
z
M 1831 4666 
L 2547 4666 
L 4325 0 
L 3669 0 
L 3244 1197 
L 1141 1197 
L 716 0 
L 50 0 
L 1831 4666 
z
" transform="scale(0.015625)"/>
       </defs>
       <use xlink:href="#DejaVuSans-50"/>
       <use xlink:href="#DejaVuSans-64" x="60.302734"/>
       <use xlink:href="#DejaVuSans-41" x="123.779297"/>
      </g>
     </g>
    </g>
    <g id="xtick_3">
     <g id="line2d_3">
      <path d="M 221.4 237.6 
L 209.318946 230.625 
L 197.237891 223.65 
L 185.156837 216.675 
L 173.075782 209.7 
L 160.994728 202.725 
L 148.913674 195.75 
L 136.832619 188.775 
L 124.751565 181.8 
L 112.670511 174.825 
L 100.589456 167.85 
L 88.508402 160.875 
L 76.427347 153.9 
" clip-path="url(#pf336a89f6c)" style="fill: none; stroke: #b0b0b0; stroke-width: 0.8; stroke-linecap: square"/>
     </g>
     <g id="text_3">
      <!-- SP -->
      <g transform="translate(58.113929 149.659375)scale(0.1 -0.1)">
       <defs>
        <path id="DejaVuSans-53" d="M 3425 4513 
L 3425 3897 
Q 3066 4069 2747 4153 
Q 2428 4238 2131 4238 
Q 1616 4238 1336 4038 
Q 1056 3838 1056 3469 
Q 1056 3159 1242 3001 
Q 1428 2844 1947 2747 
L 2328 2669 
Q 3034 2534 3370 2195 
Q 3706 1856 3706 1288 
Q 3706 609 3251 259 
Q 2797 -91 1919 -91 
Q 1588 -91 1214 -16 
Q 841 59 441 206 
L 441 856 
Q 825 641 1194 531 
Q 1563 422 1919 422 
Q 2459 422 2753 634 
Q 3047 847 3047 1241 
Q 3047 1584 2836 1778 
Q 2625 1972 2144 2069 
L 1759 2144 
Q 1053 2284 737 2584 
Q 422 2884 422 3419 
Q 422 4038 858 4394 
Q 1294 4750 2059 4750 
Q 2388 4750 2728 4690 
Q 3069 4631 3425 4513 
z
" transform="scale(0.015625)"/>
       </defs>
       <use xlink:href="#DejaVuSans-53"/>
       <use xlink:href="#DejaVuSans-50" x="63.476562"/>
      </g>
     </g>
    </g>
    <g id="xtick_4">
     <g id="line2d_4">
      <path d="M 221.4 237.6 
L 207.45 237.6 
L 193.5 237.6 
L 179.55 237.6 
L 165.6 237.6 
L 151.65 237.6 
L 137.7 237.6 
L 123.75 237.6 
L 109.8 237.6 
L 95.85 237.6 
L 81.9 237.6 
L 67.95 237.6 
L 54 237.6 
" clip-path="url(#pf336a89f6c)" style="fill: none; stroke: #b0b0b0; stroke-width: 0.8; stroke-linecap: square"/>
     </g>
     <g id="text_4">
      <!-- Gruene -->
      <g transform="translate(21.579687 240.359375)scale(0.1 -0.1)">
       <defs>
        <path id="DejaVuSans-47" d="M 3809 666 
L 3809 1919 
L 2778 1919 
L 2778 2438 
L 4434 2438 
L 4434 434 
Q 4069 175 3628 42 
Q 3188 -91 2688 -91 
Q 1594 -91 976 548 
Q 359 1188 359 2328 
Q 359 3472 976 4111 
Q 1594 4750 2688 4750 
Q 3144 4750 3555 4637 
Q 3966 4525 4313 4306 
L 4313 3634 
Q 3963 3931 3569 4081 
Q 3175 4231 2741 4231 
Q 1884 4231 1454 3753 
Q 1025 3275 1025 2328 
Q 1025 1384 1454 906 
Q 1884 428 2741 428 
Q 3075 428 3337 486 
Q 3600 544 3809 666 
z
" transform="scale(0.015625)"/>
        <path id="DejaVuSans-72" d="M 2631 2963 
Q 2534 3019 2420 3045 
Q 2306 3072 2169 3072 
Q 1681 3072 1420 2755 
Q 1159 2438 1159 1844 
L 1159 0 
L 581 0 
L 581 3500 
L 1159 3500 
L 1159 2956 
Q 1341 3275 1631 3429 
Q 1922 3584 2338 3584 
Q 2397 3584 2469 3576 
Q 2541 3569 2628 3553 
L 2631 2963 
z
" transform="scale(0.015625)"/>
        <path id="DejaVuSans-75" d="M 544 1381 
L 544 3500 
L 1119 3500 
L 1119 1403 
Q 1119 906 1312 657 
Q 1506 409 1894 409 
Q 2359 409 2629 706 
Q 2900 1003 2900 1516 
L 2900 3500 
L 3475 3500 
L 3475 0 
L 2900 0 
L 2900 538 
Q 2691 219 2414 64 
Q 2138 -91 1772 -91 
Q 1169 -91 856 284 
Q 544 659 544 1381 
z
M 1991 3584 
L 1991 3584 
z
" transform="scale(0.015625)"/>
        <path id="DejaVuSans-65" d="M 3597 1894 
L 3597 1613 
L 953 1613 
Q 991 1019 1311 708 
Q 1631 397 2203 397 
Q 2534 397 2845 478 
Q 3156 559 3463 722 
L 3463 178 
Q 3153 47 2828 -22 
Q 2503 -91 2169 -91 
Q 1331 -91 842 396 
Q 353 884 353 1716 
Q 353 2575 817 3079 
Q 1281 3584 2069 3584 
Q 2775 3584 3186 3129 
Q 3597 2675 3597 1894 
z
M 3022 2063 
Q 3016 2534 2758 2815 
Q 2500 3097 2075 3097 
Q 1594 3097 1305 2825 
Q 1016 2553 972 2059 
L 3022 2063 
z
" transform="scale(0.015625)"/>
        <path id="DejaVuSans-6e" d="M 3513 2113 
L 3513 0 
L 2938 0 
L 2938 2094 
Q 2938 2591 2744 2837 
Q 2550 3084 2163 3084 
Q 1697 3084 1428 2787 
Q 1159 2491 1159 1978 
L 1159 0 
L 581 0 
L 581 3500 
L 1159 3500 
L 1159 2956 
Q 1366 3272 1645 3428 
Q 1925 3584 2291 3584 
Q 2894 3584 3203 3211 
Q 3513 2838 3513 2113 
z
" transform="scale(0.015625)"/>
       </defs>
       <use xlink:href="#DejaVuSans-47"/>
       <use xlink:href="#DejaVuSans-72" x="77.490234"/>
       <use xlink:href="#DejaVuSans-75" x="118.603516"/>
       <use xlink:href="#DejaVuSans-65" x="181.982422"/>
       <use xlink:href="#DejaVuSans-6e" x="243.505859"/>
       <use xlink:href="#DejaVuSans-65" x="306.884766"/>
      </g>
     </g>
    </g>
    <g id="xtick_5">
     <g id="line2d_5">
      <path d="M 221.4 237.6 
L 209.318946 244.575 
L 197.237891 251.55 
L 185.156837 258.525 
L 173.075782 265.5 
L 160.994728 272.475 
L 148.913674 279.45 
L 136.832619 286.425 
L 124.751565 293.4 
L 112.670511 300.375 
L 100.589456 307.35 
L 88.508402 314.325 
L 76.427347 321.3 
" clip-path="url(#pf336a89f6c)" style="fill: none; stroke: #b0b0b0; stroke-width: 0.8; stroke-linecap: square"/>
     </g>
     <g id="text_5">
      <!-- Piraten -->
      <g transform="translate(46.686586 331.059375)scale(0.1 -0.1)">
       <defs>
        <path id="DejaVuSans-69" d="M 603 3500 
L 1178 3500 
L 1178 0 
L 603 0 
L 603 3500 
z
M 603 4863 
L 1178 4863 
L 1178 4134 
L 603 4134 
L 603 4863 
z
" transform="scale(0.015625)"/>
        <path id="DejaVuSans-61" d="M 2194 1759 
Q 1497 1759 1228 1600 
Q 959 1441 959 1056 
Q 959 750 1161 570 
Q 1363 391 1709 391 
Q 2188 391 2477 730 
Q 2766 1069 2766 1631 
L 2766 1759 
L 2194 1759 
z
M 3341 1997 
L 3341 0 
L 2766 0 
L 2766 531 
Q 2569 213 2275 61 
Q 1981 -91 1556 -91 
Q 1019 -91 701 211 
Q 384 513 384 1019 
Q 384 1609 779 1909 
Q 1175 2209 1959 2209 
L 2766 2209 
L 2766 2266 
Q 2766 2663 2505 2880 
Q 2244 3097 1772 3097 
Q 1472 3097 1187 3025 
Q 903 2953 641 2809 
L 641 3341 
Q 956 3463 1253 3523 
Q 1550 3584 1831 3584 
Q 2591 3584 2966 3190 
Q 3341 2797 3341 1997 
z
" transform="scale(0.015625)"/>
        <path id="DejaVuSans-74" d="M 1172 4494 
L 1172 3500 
L 2356 3500 
L 2356 3053 
L 1172 3053 
L 1172 1153 
Q 1172 725 1289 603 
Q 1406 481 1766 481 
L 2356 481 
L 2356 0 
L 1766 0 
Q 1100 0 847 248 
Q 594 497 594 1153 
L 594 3053 
L 172 3053 
L 172 3500 
L 594 3500 
L 594 4494 
L 1172 4494 
z
" transform="scale(0.015625)"/>
       </defs>
       <use xlink:href="#DejaVuSans-50"/>
       <use xlink:href="#DejaVuSans-69" x="58.052734"/>
       <use xlink:href="#DejaVuSans-72" x="85.835938"/>
       <use xlink:href="#DejaVuSans-61" x="126.949219"/>
       <use xlink:href="#DejaVuSans-74" x="188.228516"/>
       <use xlink:href="#DejaVuSans-65" x="227.4375"/>
       <use xlink:href="#DejaVuSans-6e" x="288.960938"/>
      </g>
     </g>
    </g>
    <g id="xtick_6">
     <g id="line2d_6">
      <path d="M 221.4 237.6 
L 214.425 249.681054 
L 207.45 261.762109 
L 200.475 273.843163 
L 193.5 285.924218 
L 186.525 298.005272 
L 179.55 310.086326 
L 172.575 322.167381 
L 165.6 334.248435 
L 158.625 346.329489 
L 151.65 358.410544 
L 144.675 370.491598 
L 137.7 382.572653 
" clip-path="url(#pf336a89f6c)" style="fill: none; stroke: #b0b0b0; stroke-width: 0.8; stroke-linecap: square"/>
     </g>
     <g id="text_6">
      <!-- EVP -->
      <g transform="translate(121.105469 397.456383)scale(0.1 -0.1)">
       <defs>
        <path id="DejaVuSans-45" d="M 628 4666 
L 3578 4666 
L 3578 4134 
L 1259 4134 
L 1259 2753 
L 3481 2753 
L 3481 2222 
L 1259 2222 
L 1259 531 
L 3634 531 
L 3634 0 
L 628 0 
L 628 4666 
z
" transform="scale(0.015625)"/>
       </defs>
       <use xlink:href="#DejaVuSans-45"/>
       <use xlink:href="#DejaVuSans-56" x="63.183594"/>
       <use xlink:href="#DejaVuSans-50" x="131.591797"/>
      </g>
     </g>
    </g>
    <g id="xtick_7">
     <g id="line2d_7">
      <path d="M 221.4 237.6 
L 221.4 251.55 
L 221.4 265.5 
L 221.4 279.45 
L 221.4 293.4 
L 221.4 307.35 
L 221.4 321.3 
L 221.4 335.25 
L 221.4 349.2 
L 221.4 363.15 
L 221.4 377.1 
L 221.4 391.05 
L 221.4 405 
" clip-path="url(#pf336a89f6c)" style="fill: none; stroke: #b0b0b0; stroke-width: 0.8; stroke-linecap: square"/>
     </g>
     <g id="text_7">
      <!-- GLP -->
      <g transform="translate(211.725 421.759375)scale(0.1 -0.1)">
       <defs>
        <path id="DejaVuSans-4c" d="M 628 4666 
L 1259 4666 
L 1259 531 
L 3531 531 
L 3531 0 
L 628 0 
L 628 4666 
z
" transform="scale(0.015625)"/>
       </defs>
       <use xlink:href="#DejaVuSans-47"/>
       <use xlink:href="#DejaVuSans-4c" x="77.490234"/>
       <use xlink:href="#DejaVuSans-50" x="133.203125"/>
      </g>
     </g>
    </g>
    <g id="xtick_8">
     <g id="line2d_8">
      <path d="M 221.4 237.6 
L 228.375 249.681054 
L 235.35 261.762109 
L 242.325 273.843163 
L 249.3 285.924218 
L 256.275 298.005272 
L 263.25 310.086326 
L 270.225 322.167381 
L 277.2 334.248435 
L 284.175 346.329489 
L 291.15 358.410544 
L 298.125 370.491598 
L 305.1 382.572653 
" clip-path="url(#pf336a89f6c)" style="fill: none; stroke: #b0b0b0; stroke-width: 0.8; stroke-linecap: square"/>
     </g>
     <g id="text_8">
      <!-- Mitte -->
      <g transform="translate(299.4 397.456383)scale(0.1 -0.1)">
       <defs>
        <path id="DejaVuSans-4d" d="M 628 4666 
L 1569 4666 
L 2759 1491 
L 3956 4666 
L 4897 4666 
L 4897 0 
L 4281 0 
L 4281 4097 
L 3078 897 
L 2444 897 
L 1241 4097 
L 1241 0 
L 628 0 
L 628 4666 
z
" transform="scale(0.015625)"/>
       </defs>
       <use xlink:href="#DejaVuSans-4d"/>
       <use xlink:href="#DejaVuSans-69" x="86.279297"/>
       <use xlink:href="#DejaVuSans-74" x="114.0625"/>
       <use xlink:href="#DejaVuSans-74" x="153.271484"/>
       <use xlink:href="#DejaVuSans-65" x="192.480469"/>
      </g>
     </g>
    </g>
    <g id="xtick_9">
     <g id="line2d_9">
      <path d="M 221.4 237.6 
L 233.481054 244.575 
L 245.562109 251.55 
L 257.643163 258.525 
L 269.724218 265.5 
L 281.805272 272.475 
L 293.886326 279.45 
L 305.967381 286.425 
L 318.048435 293.4 
L 330.129489 300.375 
L 342.210544 307.35 
L 354.291598 314.325 
L 366.372653 321.3 
" clip-path="url(#pf336a89f6c)" style="fill: none; stroke: #b0b0b0; stroke-width: 0.8; stroke-linecap: square"/>
     </g>
     <g id="text_9">
      <!-- FDP -->
      <g transform="translate(368.756383 331.059375)scale(0.1 -0.1)">
       <defs>
        <path id="DejaVuSans-46" d="M 628 4666 
L 3309 4666 
L 3309 4134 
L 1259 4134 
L 1259 2759 
L 3109 2759 
L 3109 2228 
L 1259 2228 
L 1259 0 
L 628 0 
L 628 4666 
z
" transform="scale(0.015625)"/>
        <path id="DejaVuSans-44" d="M 1259 4147 
L 1259 519 
L 2022 519 
Q 2988 519 3436 956 
Q 3884 1394 3884 2338 
Q 3884 3275 3436 3711 
Q 2988 4147 2022 4147 
L 1259 4147 
z
M 628 4666 
L 1925 4666 
Q 3281 4666 3915 4102 
Q 4550 3538 4550 2338 
Q 4550 1131 3912 565 
Q 3275 0 1925 0 
L 628 0 
L 628 4666 
z
" transform="scale(0.015625)"/>
       </defs>
       <use xlink:href="#DejaVuSans-46"/>
       <use xlink:href="#DejaVuSans-44" x="57.519531"/>
       <use xlink:href="#DejaVuSans-50" x="134.521484"/>
      </g>
     </g>
    </g>
    <g id="xtick_10">
     <g id="line2d_10">
      <path d="M 221.4 237.6 
L 235.35 237.6 
L 249.3 237.6 
L 263.25 237.6 
L 277.2 237.6 
L 291.15 237.6 
L 305.1 237.6 
L 319.05 237.6 
L 333 237.6 
L 346.95 237.6 
L 360.9 237.6 
L 374.85 237.6 
L 388.8 237.6 
" clip-path="url(#pf336a89f6c)" style="fill: none; stroke: #b0b0b0; stroke-width: 0.8; stroke-linecap: square"/>
     </g>
     <g id="text_10">
      <!-- LP -->
      <g transform="translate(396.999219 240.359375)scale(0.1 -0.1)">
       <use xlink:href="#DejaVuSans-4c"/>
       <use xlink:href="#DejaVuSans-50" x="55.712891"/>
      </g>
     </g>
    </g>
    <g id="xtick_11">
     <g id="line2d_11">
      <path d="M 221.4 237.6 
L 233.481054 230.625 
L 245.562109 223.65 
L 257.643163 216.675 
L 269.724218 209.7 
L 281.805272 202.725 
L 293.886326 195.75 
L 305.967381 188.775 
L 318.048435 181.8 
L 330.129489 174.825 
L 342.210544 167.85 
L 354.291598 160.875 
L 366.372653 153.9 
" clip-path="url(#pf336a89f6c)" style="fill: none; stroke: #b0b0b0; stroke-width: 0.8; stroke-linecap: square"/>
     </g>
     <g id="text_11">
      <!-- EDU -->
      <g transform="translate(367.828258 149.659375)scale(0.1 -0.1)">
       <defs>
        <path id="DejaVuSans-55" d="M 556 4666 
L 1191 4666 
L 1191 1831 
Q 1191 1081 1462 751 
Q 1734 422 2344 422 
Q 2950 422 3222 751 
Q 3494 1081 3494 1831 
L 3494 4666 
L 4128 4666 
L 4128 1753 
Q 4128 841 3676 375 
Q 3225 -91 2344 -91 
Q 1459 -91 1007 375 
Q 556 841 556 1753 
L 556 4666 
z
" transform="scale(0.015625)"/>
       </defs>
       <use xlink:href="#DejaVuSans-45"/>
       <use xlink:href="#DejaVuSans-44" x="63.183594"/>
       <use xlink:href="#DejaVuSans-55" x="140.185547"/>
      </g>
     </g>
    </g>
    <g id="xtick_12">
     <g id="line2d_12">
      <path d="M 221.4 237.6 
L 228.375 225.518946 
L 235.35 213.437891 
L 242.325 201.356837 
L 249.3 189.275782 
L 256.275 177.194728 
L 263.25 165.113674 
L 270.225 153.032619 
L 277.2 140.951565 
L 284.175 128.870511 
L 291.15 116.789456 
L 298.125 104.708402 
L 305.1 92.627347 
" clip-path="url(#pf336a89f6c)" style="fill: none; stroke: #b0b0b0; stroke-width: 0.8; stroke-linecap: square"/>
     </g>
     <g id="text_12">
      <!-- SVP -->
      <g transform="translate(302.490625 83.262367)scale(0.1 -0.1)">
       <use xlink:href="#DejaVuSans-53"/>
       <use xlink:href="#DejaVuSans-56" x="63.476562"/>
       <use xlink:href="#DejaVuSans-50" x="131.884766"/>
      </g>
     </g>
    </g>
   </g>
   <g id="matplotlib.axis_2">
    <g id="ytick_1">
     <g id="line2d_13">
      <path d="M 221.4 195.75 
L 200.475 201.356837 
L 185.156837 216.675 
L 179.55 237.6 
L 185.156837 258.525 
L 200.475 273.843163 
L 221.4 279.45 
L 242.325 273.843163 
L 257.643163 258.525 
L 263.25 237.6 
L 257.643163 216.675 
L 242.325 201.356837 
L 221.4 195.75 
" clip-path="url(#pf336a89f6c)" style="fill: none; stroke: #b0b0b0; stroke-width: 0.8; stroke-linecap: square"/>
     </g>
     <g id="text_13">
      <!-- 0.25 -->
      <g transform="translate(205.384698 196.855954)scale(0.1 -0.1)">
       <defs>
        <path id="DejaVuSans-30" d="M 2034 4250 
Q 1547 4250 1301 3770 
Q 1056 3291 1056 2328 
Q 1056 1369 1301 889 
Q 1547 409 2034 409 
Q 2525 409 2770 889 
Q 3016 1369 3016 2328 
Q 3016 3291 2770 3770 
Q 2525 4250 2034 4250 
z
M 2034 4750 
Q 2819 4750 3233 4129 
Q 3647 3509 3647 2328 
Q 3647 1150 3233 529 
Q 2819 -91 2034 -91 
Q 1250 -91 836 529 
Q 422 1150 422 2328 
Q 422 3509 836 4129 
Q 1250 4750 2034 4750 
z
" transform="scale(0.015625)"/>
        <path id="DejaVuSans-2e" d="M 684 794 
L 1344 794 
L 1344 0 
L 684 0 
L 684 794 
z
" transform="scale(0.015625)"/>
        <path id="DejaVuSans-32" d="M 1228 531 
L 3431 531 
L 3431 0 
L 469 0 
L 469 531 
Q 828 903 1448 1529 
Q 2069 2156 2228 2338 
Q 2531 2678 2651 2914 
Q 2772 3150 2772 3378 
Q 2772 3750 2511 3984 
Q 2250 4219 1831 4219 
Q 1534 4219 1204 4116 
Q 875 4013 500 3803 
L 500 4441 
Q 881 4594 1212 4672 
Q 1544 4750 1819 4750 
Q 2544 4750 2975 4387 
Q 3406 4025 3406 3419 
Q 3406 3131 3298 2873 
Q 3191 2616 2906 2266 
Q 2828 2175 2409 1742 
Q 1991 1309 1228 531 
z
" transform="scale(0.015625)"/>
        <path id="DejaVuSans-35" d="M 691 4666 
L 3169 4666 
L 3169 4134 
L 1269 4134 
L 1269 2991 
Q 1406 3038 1543 3061 
Q 1681 3084 1819 3084 
Q 2600 3084 3056 2656 
Q 3513 2228 3513 1497 
Q 3513 744 3044 326 
Q 2575 -91 1722 -91 
Q 1428 -91 1123 -41 
Q 819 9 494 109 
L 494 744 
Q 775 591 1075 516 
Q 1375 441 1709 441 
Q 2250 441 2565 725 
Q 2881 1009 2881 1497 
Q 2881 1984 2565 2268 
Q 2250 2553 1709 2553 
Q 1456 2553 1204 2497 
Q 953 2441 691 2322 
L 691 4666 
z
" transform="scale(0.015625)"/>
       </defs>
       <use xlink:href="#DejaVuSans-30"/>
       <use xlink:href="#DejaVuSans-2e" x="63.623047"/>
       <use xlink:href="#DejaVuSans-32" x="95.410156"/>
       <use xlink:href="#DejaVuSans-35" x="159.033203"/>
      </g>
     </g>
    </g>
    <g id="ytick_2">
     <g id="line2d_14">
      <path d="M 221.4 153.9 
L 179.55 165.113674 
L 148.913674 195.75 
L 137.7 237.6 
L 148.913674 279.45 
L 179.55 310.086326 
L 221.4 321.3 
L 263.25 310.086326 
L 293.886326 279.45 
L 305.1 237.6 
L 293.886326 195.75 
L 263.25 165.113674 
L 221.4 153.9 
" clip-path="url(#pf336a89f6c)" style="fill: none; stroke: #b0b0b0; stroke-width: 0.8; stroke-linecap: square"/>
     </g>
     <g id="text_14">
      <!-- 0.50 -->
      <g transform="translate(189.369397 158.191596)scale(0.1 -0.1)">
       <use xlink:href="#DejaVuSans-30"/>
       <use xlink:href="#DejaVuSans-2e" x="63.623047"/>
       <use xlink:href="#DejaVuSans-35" x="95.410156"/>
       <use xlink:href="#DejaVuSans-30" x="159.033203"/>
      </g>
     </g>
    </g>
    <g id="ytick_3">
     <g id="line2d_15">
      <path d="M 221.4 112.05 
L 158.625 128.870511 
L 112.670511 174.825 
L 95.85 237.6 
L 112.670511 300.375 
L 158.625 346.329489 
L 221.4 363.15 
L 284.175 346.329489 
L 330.129489 300.375 
L 346.95 237.6 
L 330.129489 174.825 
L 284.175 128.870511 
L 221.4 112.05 
" clip-path="url(#pf336a89f6c)" style="fill: none; stroke: #b0b0b0; stroke-width: 0.8; stroke-linecap: square"/>
     </g>
     <g id="text_15">
      <!-- 0.75 -->
      <g transform="translate(173.354095 119.527237)scale(0.1 -0.1)">
       <defs>
        <path id="DejaVuSans-37" d="M 525 4666 
L 3525 4666 
L 3525 4397 
L 1831 0 
L 1172 0 
L 2766 4134 
L 525 4134 
L 525 4666 
z
" transform="scale(0.015625)"/>
       </defs>
       <use xlink:href="#DejaVuSans-30"/>
       <use xlink:href="#DejaVuSans-2e" x="63.623047"/>
       <use xlink:href="#DejaVuSans-37" x="95.410156"/>
       <use xlink:href="#DejaVuSans-35" x="159.033203"/>
      </g>
     </g>
    </g>
   </g>
   <g id="line2d_16">
    <path d="M 221.4 153.9 
L 174.528 156.415314 
L 128.617504 184.032001 
L 117.611999 237.6 
L 143.114764 282.798002 
L 181.224001 307.186872 
L 221.4 327.996004 
L 269.945999 321.684136 
L 296.785777 281.123998 
L 311.796004 237.6 
L 282.288517 202.445999 
L 249.858 188.309298 
L 221.4 153.9 
" clip-path="url(#pf336a89f6c)" style="fill: none; stroke: #f211d8; stroke-width: 1.5; stroke-linecap: square"/>
   </g>
   <g id="patch_4">
    <path d="M 221.4 70.2 
L 137.7 92.627347 
L 76.427347 153.9 
L 54 237.6 
L 76.427347 321.3 
L 137.7 382.572653 
L 221.4 405 
L 305.1 382.572653 
L 366.372653 321.3 
L 388.8 237.6 
L 366.372653 153.9 
L 305.1 92.627347 
L 221.4 70.2 
z
" style="fill: none; stroke: #000000; stroke-width: 0.8; stroke-linejoin: miter; stroke-linecap: square"/>
   </g>
   <g id="text_16">
    <!-- John Doe -->
    <g transform="translate(194.46375 45.360937)scale(0.12 -0.12)">
     <defs>
      <path id="DejaVuSans-4a" d="M 628 4666 
L 1259 4666 
L 1259 325 
Q 1259 -519 939 -900 
Q 619 -1281 -91 -1281 
L -331 -1281 
L -331 -750 
L -134 -750 
Q 284 -750 456 -515 
Q 628 -281 628 325 
L 628 4666 
z
" transform="scale(0.015625)"/>
      <path id="DejaVuSans-68" d="M 3513 2113 
L 3513 0 
L 2938 0 
L 2938 2094 
Q 2938 2591 2744 2837 
Q 2550 3084 2163 3084 
Q 1697 3084 1428 2787 
Q 1159 2491 1159 1978 
L 1159 0 
L 581 0 
L 581 4863 
L 1159 4863 
L 1159 2956 
Q 1366 3272 1645 3428 
Q 1925 3584 2291 3584 
Q 2894 3584 3203 3211 
Q 3513 2838 3513 2113 
z
" transform="scale(0.015625)"/>
      <path id="DejaVuSans-20" transform="scale(0.015625)"/>
     </defs>
     <use xlink:href="#DejaVuSans-4a"/>
     <use xlink:href="#DejaVuSans-6f" x="29.492188"/>
     <use xlink:href="#DejaVuSans-68" x="90.673828"/>
     <use xlink:href="#DejaVuSans-6e" x="154.052734"/>
     <use xlink:href="#DejaVuSans-20" x="217.431641"/>
     <use xlink:href="#DejaVuSans-44" x="249.21875"/>
     <use xlink:href="#DejaVuSans-6f" x="326.220703"/>
     <use xlink:href="#DejaVuSans-65" x="387.402344"/>
    </g>
   </g>
  </g>
 </g>
 <defs>
  <clipPath id="pf336a89f6c">
   <path d="M 221.4 70.2 
L 137.7 92.627347 
L 76.427347 153.9 
L 54 237.6 
L 76.427347 321.3 
L 137.7 382.572653 
L 221.4 405 
L 305.1 382.572653 
L 366.372653 321.3 
L 388.8 237.6 
L 366.372653 153.9 
L 305.1 92.627347 
z
"/>
  </clipPath>
 </defs>
</svg>
